<?xml version="1.0" encoding="UTF-8" standalone="no" ?>
<!DOCTYPE svg PUBLIC "-//W3C//DTD SVG 1.1//EN" "http://www.w3.org/Graphics/SVG/1.1/DTD/svg11.dtd">
<svg xmlns="http://www.w3.org/2000/svg" xmlns:xlink="http://www.w3.org/1999/xlink" version="1.1" width="1080" height="1080" viewBox="0 0 1080 1080" xml:space="preserve">
<desc>Created with Fabric.js 5.2.4</desc>
<defs>
</defs>
<rect x="0" y="0" width="100%" height="100%" fill="transparent"></rect>
<g transform="matrix(1 0 0 1 540 540)" id="3d89454f-60b2-49d8-a072-cf34056040ff"  >
<rect style="stroke: none; stroke-width: 1; stroke-dasharray: none; stroke-linecap: butt; stroke-dashoffset: 0; stroke-linejoin: miter; stroke-miterlimit: 4; fill: rgb(255,255,255); fill-rule: nonzero; opacity: 1; visibility: hidden;" vector-effect="non-scaling-stroke"  x="-540" y="-540" rx="0" ry="0" width="1080" height="1080" />
</g>
<g transform="matrix(1 0 0 1 540 540)" id="cffb87ba-8b95-4206-ab44-6c369cc13c36"  >
</g>
<g transform="matrix(2.55 0 0 2.55 171.64 496.58)"  >
<rect style="stroke: none; stroke-width: 2; stroke-dasharray: none; stroke-linecap: butt; stroke-dashoffset: 0; stroke-linejoin: miter; stroke-miterlimit: 4; fill: rgb(56,32,45); fill-opacity: 0; fill-rule: nonzero; opacity: 1;" vector-effect="non-scaling-stroke"  x="-30" y="-33.06222310388151" rx="0" ry="0" width="60" height="66.12444620776301" />
</g>
<g transform="matrix(2.55 0 0 2.55 151.38 592.1)"  >
<path style="stroke: none; stroke-width: 1; stroke-dasharray: none; stroke-linecap: butt; stroke-dashoffset: 0; stroke-linejoin: miter; stroke-miterlimit: 4; fill: rgb(255,255,255); fill-rule: nonzero; opacity: 1;" vector-effect="non-scaling-stroke"  transform=" translate(-22.94, -70.44)" d="M 45.48 112 C 45.48 108.39 45.37 105.33 45.48 102.27 C 45.68533732953579 100.62181720773856 44.78202406934783 99.03491553443537 43.26 98.36999999999999 C 33.46 92.77 23.7 87 13.87 81.46 C 11.971596534640906 80.55269970326093 10.844328954855671 78.553998320663 11.05 76.46 Q 11.209999999999999 66.8 11.049999999999999 57.11999999999999 C 10.847729333780405 55.02123741790652 11.983783578659276 53.021141916359205 13.889999999999997 52.11999999999999 C 23.32 46.84 32.67 41.39 42.05 36 C 42.66 35.64 43.23 35.23 44.14 34.64 C 40.87 32.75 37.95 31.12 35.14 29.380000000000003 C 34.246806747404776 28.726373968068046 33.03319325259522 28.726373968068046 32.14 29.380000000000003 Q 18.78 37.1 5.4 44.77 C 2.1438773736990147 46.43523389920803 0.18155464134949195 49.869298680819696 0.40000000000000124 53.52000000000001 C 0.47000000000000036 62.160000000000004 0.5300000000000004 70.81 0.40000000000000036 79.45 C 0.09020347019456143 83.59367252934535 2.347310033850001 87.50493276091699 6.090000000000006 89.31 C 13.63 93.52 21.09 97.91 28.55 102.22 z" stroke-linecap="round" />
</g>
<g transform="matrix(2.55 0 0 2.55 296.03 557.4)"  >
<path style="stroke: none; stroke-width: 1; stroke-dasharray: none; stroke-linecap: butt; stroke-dashoffset: 0; stroke-linejoin: miter; stroke-miterlimit: 4; fill: rgb(26,72,207); fill-rule: nonzero; opacity: 1;" vector-effect="non-scaling-stroke"  transform=" translate(-78.67, -56.86)" d="M 56.08 92 C 57.08 91.49 57.72 91.23 58.29 90.91 L 69.87 84.22999999999999 C 78.54 79.22999999999999 87.2 74.22999999999999 95.87 69.22999999999999 C 99.35638865441145 67.51404989609817 101.47876355552903 63.87963053852576 101.26 59.999999999999986 C 101.15 51.149999999999984 101.36 42.29999999999998 101.14 33.45999999999999 C 101.08 31.339999999999986 100.39 28.719999999999985 99 27.289999999999985 C 96.8 25.009999999999984 93.76 23.539999999999985 91.08 21.729999999999986 L 90.53 22.159999999999986 L 90.53 24.349999999999987 C 90.53 34.97999999999999 90.46000000000001 45.609999999999985 90.59 56.249999999999986 C 90.7947353183274 58.60713417677746 89.49862111988966 60.839330851864666 87.35000000000001 61.829999999999984 C 77.56 67.37 67.84 73 58.13 78.69 C 57.32 79.16 56.220000000000006 80.02 56.13 80.75999999999999 C 56 84.3 56.080000000000005 87.86999999999999 56.080000000000005 91.99999999999999 z" stroke-linecap="round" />
</g>
<g transform="matrix(2.55 0 0 2.55 253.6 491.51)"  >
<path style="stroke: none; stroke-width: 1; stroke-dasharray: none; stroke-linecap: butt; stroke-dashoffset: 0; stroke-linejoin: miter; stroke-miterlimit: 4; fill: rgb(255,255,255); fill-rule: nonzero; opacity: 1;" vector-effect="non-scaling-stroke"  transform=" translate(-62.06, -31.07)" d="M 40.11 4.74 C 41.11 5.42 41.57 5.74 42.019999999999996 5.99 C 51.36 11.36 60.669999999999995 16.78 70.02 22.07 C 72.23223832783465 23.095431801385374 73.57264384510722 25.389280528860752 73.38 27.819999999999993 C 73.25 38.32 73.32 48.82 73.38 59.32 C 73.38 60.160000000000004 73.52 61 73.61999999999999 62.15 C 76.99999999999999 60.23 80.04999999999998 58.56 82.99999999999999 56.71 C 83.62038136609138 56.12456184978898 83.96221279172009 55.3027118264689 83.93999999999998 54.45 C 84 44.23 83.92 34 84 23.78 C 84.20152049126695 20.048949841899166 82.1764297653797 16.552136204756657 78.84 14.870000000000003 C 71.04 10.43 63.27 5.870000000000001 55.49 1.4100000000000001 C 53.31 0.15 50.9 -0.48 48.57 0.43 C 45.81 1.52 43.25 3.1100000000000003 40.11 4.739999999999999 z" stroke-linecap="round" />
</g>
<g transform="matrix(2.55 0 0 2.55 180.35 476.01)"  >
<path style="stroke: none; stroke-width: 1; stroke-dasharray: none; stroke-linecap: butt; stroke-dashoffset: 0; stroke-linejoin: miter; stroke-miterlimit: 4; fill: rgb(26,72,207); fill-rule: nonzero; opacity: 1;" vector-effect="non-scaling-stroke"  transform=" translate(-33.39, -25.01)" d="M 66.79 39.91 C 66.79 36.239999999999995 66.73 32.97 66.79 29.709999999999997 C 66.90551164783182 28.465276421646557 66.21315180039207 27.28584947222885 65.07000000000001 26.779999999999998 C 56.38000000000001 21.779999999999998 47.69000000000001 16.86 39.07000000000001 11.779999999999998 C 35.74071566450026 9.555528334536893 31.399284335499743 9.555528334536893 28.07 11.780000000000003 C 20.710000000000008 16.159999999999997 13.240000000000007 20.349999999999998 5.830000000000009 24.65 C 0.7200000000000086 27.65 -1.3699999999999912 33.849999999999994 0.8800000000000088 39.75 C 1.4800000000000089 39.43 2.080000000000009 39.13 2.650000000000009 38.75 Q 16.83 30.65 31 22.47 C 32.565132040439764 21.413749168770117 34.614867959560236 21.413749168770117 36.18 22.47 C 45.57 27.94 55 33.35 64.47 38.78 C 65.09 39.14 65.76 39.410000000000004 66.78999999999999 39.910000000000004 z" stroke-linecap="round" />
</g>
<g transform="matrix(2.55 0 0 2.55 296.22 651.86)"  >
<path style="stroke: none; stroke-width: 1; stroke-dasharray: none; stroke-linecap: butt; stroke-dashoffset: 0; stroke-linejoin: miter; stroke-miterlimit: 4; fill: rgb(255,255,255); fill-rule: nonzero; opacity: 1;" vector-effect="non-scaling-stroke"  transform=" translate(-78.74, -92.95)" d="M 100.83 74 C 100.40709062420476 74.16093467455195 99.99315758172575 74.34453400790957 99.59 74.55 C 87.07 81.81 74.7 89.3 62 96.12 C 57.36 98.61 55.19 101.39 56.07 106.57000000000001 C 56.20697019366189 108.34068847892284 56.20697019366189 110.11931152107718 56.07 111.89000000000003 C 57.07 111.34000000000002 57.660000000000004 111.08000000000001 58.19 110.78000000000002 L 95.05 89.55000000000001 C 100.85 86.22000000000001 102.88 80.9 100.83 74.00000000000001 z" stroke-linecap="round" />
</g>
<g transform="matrix(2.55 0 0 2.55 175.55 595.34)"  >
<path style="stroke: none; stroke-width: 1; stroke-dasharray: none; stroke-linecap: butt; stroke-dashoffset: 0; stroke-linejoin: miter; stroke-miterlimit: 4; fill: rgb(26,72,207); fill-rule: nonzero; opacity: 1;" vector-effect="non-scaling-stroke"  transform=" translate(-31.51, -71.72)" d="M 45.28 91.85 C 45.370000000000005 91.03 45.47 90.52 45.47 90.00999999999999 C 45.47 87.32999999999998 45.37 84.64999999999999 45.47 82.00999999999999 C 45.63996630109811 80.56162629555963 44.821359553039755 79.17818089134101 43.47 78.63 C 38.87 76.06 34.35 73.32 29.75 70.75 C 28.74128774902601 70.28938362673568 28.143818420825088 69.23170143762323 28.27 68.13 L 28.27 53.94 C 28.27 53.25 28.16 52.55 28.08 51.58 C 24.95 53.379999999999995 22.189999999999998 55.04 19.36 56.58 C 18.14868487918735 57.11737570942251 17.418886153990737 58.37133926487084 17.55 59.69 C 17.62 64.48 17.64 69.28999999999999 17.55 74.08 C 17.442261039218067 75.39653536514341 18.17527007228478 76.63824465613072 19.380000000000003 77.17999999999999 C 27.380000000000003 81.75 35.38 86.38 43.45 90.99 C 44 91.22999999999999 44.5 91.46 45.28 91.85 z" stroke-linecap="round" />
</g>
<g transform="matrix(3.45 0 0 3.45 685.45 537.56)"  >
<path style="stroke: none; stroke-width: 1; stroke-dasharray: none; stroke-linecap: butt; stroke-dashoffset: 0; stroke-linejoin: miter; stroke-miterlimit: 4; fill: rgb(255,255,255); fill-rule: nonzero; opacity: 1;" vector-effect="non-scaling-stroke"  transform=" translate(-89.45, 11.59)" d="M 2.25 0 L 6.59 0 L 6.59 -15.76 L 6.75 -15.76 L 17.91 0 L 22.28 0 L 22.28 -23.17 L 18.01 -23.17 L 18.01 -7.22 L 17.84 -7.22 L 6.65 -23.17 L 2.25 -23.17 Z M 37.71 -23.51 L 37.71 -19.27 C 42.08 -19.27 45.39 -16.75 45.39 -11.59 C 45.39 -6.42 42.08 -3.87 37.71 -3.87 C 33.47 -3.87 30.19 -6.42 30.19 -11.59 C 30.19 -11.59 25.69 -11.59 25.69 -11.59 C 25.69 -3.94 31.02 0.33 37.71 0.33 C 44.56 0.33 49.86 -3.61 49.86 -11.59 C 49.86 -19.2 44.56 -23.51 37.71 -23.51 Z M 58.83 0 L 63.4 0 L 55.06 -23.17 L 50.35 -23.17 Z M 64.89 -3.44 L 72.67 -23.17 L 67.57 -23.17 L 62.77 -9.24 Z M 83.46 -23.17 L 77.8 -23.17 L 69.49 0 L 74.32 0 L 80.48 -18.37 L 80.81 -18.37 L 87.4 0 L 92.57 0 Z M 104.75 0.33 C 111.34 0.33 114.91 -3.54 115.67 -8.34 L 111.14 -8.34 C 110.38 -5.46 108.03 -3.58 104.62 -3.58 C 100.08 -3.58 97.2 -7.58 97.2 -11.92 C 97.2 -16.49 100.41 -19.57 104.55 -19.57 C 108.49 -19.57 110.54 -17.35 111.2 -14.6 L 115.67 -14.6 C 115.01 -20.29 110.54 -23.51 104.25 -23.51 C 97.2 -23.51 92.83 -18.18 92.83 -11.59 C 92.83 -5.03 96.84 0.33 104.75 0.33 Z M 130.84 -23.17 L 125.18 -23.17 L 116.87 0 L 121.7 0 L 127.86 -18.37 L 128.19 -18.37 L 134.78 0 L 139.94 0 Z M 158.02 0 L 176.66 0 L 176.66 -4.37 L 159.67 -4.37 L 146.76 -23.17 L 142.16 -23.17 Z M 163.78 -9.5 L 163.78 -9.53 L 176.66 -9.53 L 176.66 -13.64 L 163.78 -13.64 L 163.78 -18.84 L 176.66 -18.84 L 176.66 -23.17 L 159.51 -23.17 L 159.51 -9.5 Z M 142.36 0 L 146.69 0 L 146.69 -11.36 L 142.36 -17.55 Z" stroke-linecap="round" />
</g>
</svg>