<svg data-v-0dd9719b="" version="1.0" xmlns="http://www.w3.org/2000/svg" xmlns:xlink="http://www.w3.org/1999/xlink" width="100%" height="100%" viewBox="0 0 340.000000 250.000000" preserveAspectRatio="xMidYMid meet" color-interpolation-filters="sRGB" style="margin: auto;"> <rect data-v-0dd9719b="" x="0" y="0" width="100%" height="100%" fill="#faf7f5" fill-opacity="0" class="background"></rect> <rect data-v-0dd9719b="" x="0" y="0" width="100%" fill="url(#watermark)" fill-opacity="1" class="watermarklayer"></rect> <g data-v-0dd9719b="" fill="#38202d" class="icon-text-wrapper icon-svg-group iconsvg" transform="translate(49.29499816894531,91.93777847290039)"><g class="iconsvg-imagesvg" transform="matrix(1,0,0,1,0,0)" opacity="1"><g><rect fill="#38202d" fill-opacity="0" stroke-width="2" x="0" y="0" width="60" height="66.12444620776301" class="image-rect"></rect> <svg x="0" y="0" width="60" height="66.12444620776301" filtersec="colorsb9815397656" class="image-svg-svg primary" style="overflow: visible;"><svg xmlns="http://www.w3.org/2000/svg" viewBox="-0.019324302673339844 -0.0005170106887817383 101.6268310546875 112.00051879882812"><title>资源 43</title><path d="M45.48 112c0-3.61-.11-6.67 0-9.73a3.75 3.75 0 0 0-2.22-3.9C33.46 92.77 23.7 87 13.87 81.46a5 5 0 0 1-2.82-5q.16-9.66 0-19.34a5 5 0 0 1 2.84-5C23.32 46.84 32.67 41.39 42.05 36c.61-.36 1.18-.77 2.09-1.36-3.27-1.89-6.19-3.52-9-5.26a2.54 2.54 0 0 0-3 0Q18.78 37.1 5.4 44.77a9.21 9.21 0 0 0-5 8.75c.07 8.64.13 17.29 0 25.93a10.11 10.11 0 0 0 5.69 9.86c7.54 4.21 15 8.6 22.46 12.91z" fill="#38202d"></path><path d="M56.08 92c1-.51 1.64-.77 2.21-1.09l11.58-6.68c8.67-5 17.33-10 26-15a9.68 9.68 0 0 0 5.39-9.23c-.11-8.85.1-17.7-.12-26.54-.06-2.12-.75-4.74-2.14-6.17-2.2-2.28-5.24-3.75-7.92-5.56l-.55.43v2.19c0 10.63-.07 21.26.06 31.9a5.61 5.61 0 0 1-3.24 5.58C77.56 67.37 67.84 73 58.13 78.69c-.81.47-1.91 1.33-2 2.07-.13 3.54-.05 7.11-.05 11.24z" fill="#1a48cf"></path><path d="M40.11 4.74c1 .68 1.46 1 1.91 1.25 9.34 5.37 18.65 10.79 28 16.08a5.83 5.83 0 0 1 3.36 5.75c-.13 10.5-.06 21 0 31.5 0 .84.14 1.68.24 2.83 3.38-1.92 6.43-3.59 9.38-5.44a3 3 0 0 0 .94-2.26C84 44.23 83.92 34 84 23.78a9.41 9.41 0 0 0-5.16-8.91c-7.8-4.44-15.57-9-23.35-13.46C53.31.15 50.9-.48 48.57.43c-2.76 1.09-5.32 2.68-8.46 4.31z" fill="#38202d"></path><path d="M66.79 39.91c0-3.67-.06-6.94 0-10.2a2.91 2.91 0 0 0-1.72-2.93c-8.69-5-17.38-9.92-26-15a9.9 9.9 0 0 0-11 0c-7.36 4.38-14.83 8.57-22.24 12.87-5.11 3-7.2 9.2-4.95 15.1.6-.32 1.2-.62 1.77-1Q16.83 30.65 31 22.47a4.63 4.63 0 0 1 5.18 0C45.57 27.94 55 33.35 64.47 38.78c.62.36 1.29.63 2.32 1.13z" fill="#1a48cf"></path><path d="M100.83 74a12.6 12.6 0 0 0-1.24.55C87.07 81.81 74.7 89.3 62 96.12c-4.64 2.49-6.81 5.27-5.93 10.45a34.49 34.49 0 0 1 0 5.32c1-.55 1.59-.81 2.12-1.11l36.86-21.23c5.8-3.33 7.83-8.65 5.78-15.55z" fill="#38202d"></path><path d="M45.28 91.85c.09-.82.19-1.33.19-1.84 0-2.68-.1-5.36 0-8a3.24 3.24 0 0 0-2-3.38c-4.6-2.57-9.12-5.31-13.72-7.88a2.56 2.56 0 0 1-1.48-2.62V53.94c0-.69-.11-1.39-.19-2.36-3.13 1.8-5.89 3.46-8.72 5a3.07 3.07 0 0 0-1.81 3.11c.07 4.79.09 9.6 0 14.39a3.12 3.12 0 0 0 1.83 3.1c8 4.57 16 9.2 24.07 13.81.55.24 1.05.47 1.83.86z" fill="#1a48cf"></path></svg></svg> <!----></g></g> <g transform="translate(67,21.142221450805664)"><g data-gra="path-name" fill-rule="" class="tp-name iconsvg-namesvg" opacity="1" transform="matrix(0.9859545468750001,0,0,0.9859545468750001,1.2248337654836092,0.16742180232158255)"><g transform="scale(1)"><g><path d="M2.25 0L6.59 0 6.59-15.76 6.75-15.76 17.91 0 22.28 0 22.28-23.17 18.01-23.17 18.01-7.22 17.84-7.22 6.65-23.17 2.25-23.17ZM37.71-23.51L37.71-19.27C42.08-19.27 45.39-16.75 45.39-11.59 45.39-6.42 42.08-3.87 37.71-3.87 33.47-3.87 30.19-6.42 30.19-11.59 30.19-11.59 25.69-11.59 25.69-11.59 25.69-3.94 31.02 0.33 37.71 0.33 44.56 0.33 49.86-3.61 49.86-11.59 49.86-19.2 44.56-23.51 37.71-23.51ZM58.83 0L63.4 0 55.06-23.17 50.35-23.17ZM64.89-3.44L72.67-23.17 67.57-23.17 62.77-9.24ZM83.46-23.17L77.8-23.17 69.49 0 74.32 0 80.48-18.37 80.81-18.37 87.4 0 92.57 0ZM104.75 0.33C111.34 0.33 114.91-3.54 115.67-8.34L111.14-8.34C110.38-5.46 108.03-3.58 104.62-3.58 100.08-3.58 97.2-7.58 97.2-11.92 97.2-16.49 100.41-19.57 104.55-19.57 108.49-19.57 110.54-17.35 111.2-14.6L115.67-14.6C115.01-20.29 110.54-23.51 104.25-23.51 97.2-23.51 92.83-18.18 92.83-11.59 92.83-5.03 96.84 0.33 104.75 0.33ZM130.84-23.17L125.18-23.17 116.87 0 121.7 0 127.86-18.37 128.19-18.37 134.78 0 139.94 0ZM158.02 0L176.66 0 176.66-4.37 159.67-4.37 146.76-23.17 142.16-23.17ZM163.78-9.5L163.78-9.53 176.66-9.53 176.66-13.64 163.78-13.64 163.78-18.84 176.66-18.84 176.66-23.17 159.51-23.17 159.51-9.5ZM142.36 0L146.69 0 146.69-11.36 142.36-17.55Z" transform="translate(-2.25, 23.510000228881836)"></path></g> <!----> <!----> <!----> <!----> <!----> <!----> <!----></g></g> <!----></g></g><defs v-gra="od"></defs></svg>